# Blender v2.78 (sub 0) OBJ File: 'untitled2.blend'
# www.blender.org
mtllib box.mtl
o Cube
v 0.857143 -1.142857 -1.142857
v 0.857143 -1.142857 0.857143
v -1.142857 -1.142857 0.857143
v -1.000000 -1.000000 -1.000000
v 0.857143 0.857143 -1.142857
v 0.857142 0.857143 0.857143
v -1.142857 0.857143 0.857142
v -1.142857 0.857143 -1.142857
vt 0.0019 0.4977
vt 0.0016 0.2500
vt 0.2477 0.2506
vt 0.2485 0.4978
vt 0.7479 0.4988
vt 0.4989 0.4980
vt 0.4997 0.2506
vt 0.7471 0.2499
vt 0.9968 0.4981
vt 0.9976 0.2507
vt 0.2477 0.0001
vt 0.4997 0.0001
vt 0.4986 0.7503
vt 0.2477 0.7492
vn -0.0384 -0.9985 -0.0384
vn 0.0000 1.0000 0.0000
vn 1.0000 0.0000 0.0000
vn -0.0000 -0.0000 1.0000
vn -0.9985 -0.0384 -0.0384
vn -0.0384 -0.0384 -0.9985
usemtl Material
s off
f 1/1/1 2/2/1 3/3/1 4/4/1
f 5/5/2 8/6/2 7/7/2 6/8/2
f 1/9/3 5/5/3 6/8/3 2/10/3
f 2/11/4 6/12/4 7/7/4 3/3/4
f 3/3/5 7/7/5 8/6/5 4/4/5
f 5/13/6 1/14/6 4/4/6 8/6/6
